<svg width="19" height="14" viewBox="0 0 19 14" fill="none" xmlns="http://www.w3.org/2000/svg">
<path d="M18.9925 1.09204C17.689 2.37262 16.6943 3.35593 16.0083 4.04196C14.6819 5.39115 13.893 6.47736 13.6415 7.3006C13.5043 7.73508 13.3556 8.59262 13.1955 9.87321C12.8525 12.5487 12.0179 13.8865 10.6915 13.8865C9.34236 13.8865 8.66776 13.189 8.66776 11.7941C8.66776 10.1705 9.81114 8.1467 12.0979 5.72273C15.2994 2.31546 17.3918 0.611816 18.3751 0.611816C18.8096 0.611816 19.0154 0.77189 18.9925 1.09204ZM11.0689 1.09204C10.3828 1.73233 9.38809 2.69277 8.08463 3.97336C6.80404 5.25395 6.01511 6.36303 5.71783 7.3006C5.55776 7.82655 5.39769 8.69552 5.23761 9.90751C4.8946 12.5602 4.07136 13.8865 2.76791 13.8865C1.35012 13.8865 0.64122 13.189 0.64122 11.7941C0.64122 10.1934 1.79604 8.16957 4.10567 5.72273C7.30713 2.31546 9.38809 0.611816 10.3485 0.611816C10.8059 0.611816 11.046 0.77189 11.0689 1.09204Z" fill="#612B1C"/>
</svg>
