<svg width="259" height="259" viewBox="0 0 259 259" fill="none" xmlns="http://www.w3.org/2000/svg">
<path d="M194.172 64.8278C181.381 52.0369 165.084 43.3261 147.343 39.7971C129.601 36.2681 111.212 38.0793 94.4995 45.0017C77.7873 51.9241 63.5031 63.6468 53.4533 78.6874C43.4035 93.728 38.0394 111.411 38.0394 129.5C38.0394 147.589 43.4035 165.272 53.4533 180.313C63.5031 195.353 77.7873 207.076 94.4995 213.999C111.212 220.921 129.601 222.732 147.343 219.203C165.084 215.674 181.381 206.963 194.172 194.172L161.295 161.296C155.007 167.584 146.995 171.867 138.272 173.602C129.55 175.337 120.509 174.446 112.292 171.043C104.076 167.64 97.0532 161.876 92.1123 154.482C87.1714 147.087 84.5342 138.393 84.5342 129.5C84.5342 120.607 87.1714 111.913 92.1123 104.519C97.0532 97.124 104.076 91.3607 112.292 87.9573C120.509 84.554 129.55 83.6635 138.272 85.3985C146.995 87.1335 155.007 91.4161 161.295 97.7046L194.172 64.8278Z" fill="url(#paint0_linear_193:66)"/>
<path d="M149.697 202.849C161.992 199.554 173.294 193.302 182.619 184.637C191.944 175.973 199.007 165.158 203.193 153.137C207.38 141.117 208.562 128.254 206.637 115.672C204.712 103.089 199.738 91.1686 192.149 80.9492L186.884 84.8595C193.835 94.2199 198.391 105.139 200.154 116.664C201.917 128.189 200.834 139.97 197 150.98C193.165 161.991 186.695 171.896 178.154 179.833C169.614 187.769 159.261 193.496 147.999 196.514L149.697 202.849Z" fill="url(#paint1_linear_193:66)"/>
<defs>
<linearGradient id="paint0_linear_193:66" x1="64.8276" y1="64.8278" x2="194.172" y2="194.172" gradientUnits="userSpaceOnUse">
<stop stop-color="#FFC500"/>
<stop offset="1" stop-color="#FF9346"/>
</linearGradient>
<linearGradient id="paint1_linear_193:66" x1="204.875" y1="107.276" x2="54.1238" y2="147.67" gradientUnits="userSpaceOnUse">
<stop stop-color="#FFC500"/>
<stop offset="1" stop-color="#FF9346"/>
</linearGradient>
</defs>
</svg>
